# xmcd
#
# Track frame offsets: 
#        150
#        16092
#        33022
#        56042
#        72352
#        85997
#
# Disc length: 1442 seconds
#
# Revision: 0
# Processed by: cddbd v1.5.2PL0 Copyright (c) Steve Scherf et al.
# Submitted via: ExactAudioCopyFreeDBPlugin 1.0
#
DISCID=4205a006
DTITLE=Miami Golem - Support Your Local Blues Band
DYEAR=1900
DGENRE=Blues
TTITLE0=Daylight Saving Time
TTITLE1=White Noise
TTITLE2=Well-Bred And Accomplished
TTITLE3=Hardcore Superstar
TTITLE4=Self Love
TTITLE5=Ready To Go - Thorn In My Side
EXTD=
EXTT0=
EXTT1=
EXTT2=
EXTT3=
EXTT4=
EXTT5=
PLAYORDER=
